<mxfile host="Electron" agent="Mozilla/5.0 (Windows NT 10.0; Win64; x64) AppleWebKit/537.36 (KHTML, like Gecko) draw.io/24.7.17 Chrome/128.0.6613.36 Electron/32.0.1 Safari/537.36" version="24.7.17">
  <diagram name="Page-1" id="ipy6pIhtTc77U0XnorvN">
    <mxGraphModel dx="1120" dy="532" grid="1" gridSize="10" guides="1" tooltips="1" connect="1" arrows="1" fold="1" page="1" pageScale="1" pageWidth="850" pageHeight="1100" math="0" shadow="0">
      <root>
        <mxCell id="0" />
        <mxCell id="1" parent="0" />
        <mxCell id="dOBhgkOG1SsTnUNySuO0-16" value="" style="edgeStyle=orthogonalEdgeStyle;rounded=0;orthogonalLoop=1;jettySize=auto;html=1;" parent="1" source="dOBhgkOG1SsTnUNySuO0-1" edge="1">
          <mxGeometry relative="1" as="geometry">
            <mxPoint x="345" y="130" as="targetPoint" />
          </mxGeometry>
        </mxCell>
        <mxCell id="dOBhgkOG1SsTnUNySuO0-1" value="input data operator" style="rounded=0;whiteSpace=wrap;html=1;fillColor=#99CCFF;" parent="1" vertex="1">
          <mxGeometry x="80" y="100" width="120" height="60" as="geometry" />
        </mxCell>
        <mxCell id="dOBhgkOG1SsTnUNySuO0-18" value="" style="edgeStyle=orthogonalEdgeStyle;rounded=0;orthogonalLoop=1;jettySize=auto;html=1;entryX=0.5;entryY=1;entryDx=0;entryDy=0;" parent="1" source="dOBhgkOG1SsTnUNySuO0-2" target="dOBhgkOG1SsTnUNySuO0-1" edge="1">
          <mxGeometry relative="1" as="geometry">
            <mxPoint x="130" y="190" as="targetPoint" />
            <Array as="points">
              <mxPoint x="395" y="190" />
              <mxPoint x="140" y="190" />
            </Array>
          </mxGeometry>
        </mxCell>
        <mxCell id="dOBhgkOG1SsTnUNySuO0-22" value="" style="edgeStyle=orthogonalEdgeStyle;rounded=0;orthogonalLoop=1;jettySize=auto;html=1;entryX=1;entryY=0.5;entryDx=0;entryDy=0;" parent="1" source="dOBhgkOG1SsTnUNySuO0-2" target="dOBhgkOG1SsTnUNySuO0-3" edge="1">
          <mxGeometry relative="1" as="geometry">
            <mxPoint x="500" y="280" as="targetPoint" />
            <Array as="points">
              <mxPoint x="500" y="140" />
              <mxPoint x="500" y="270" />
            </Array>
          </mxGeometry>
        </mxCell>
        <mxCell id="dOBhgkOG1SsTnUNySuO0-2" value="Data Acquization" style="ellipse;whiteSpace=wrap;html=1;aspect=fixed;fillColor=#99CCFF;" parent="1" vertex="1">
          <mxGeometry x="345" y="80" width="100" height="100" as="geometry" />
        </mxCell>
        <mxCell id="dOBhgkOG1SsTnUNySuO0-3" value="Data Storage" style="ellipse;whiteSpace=wrap;html=1;aspect=fixed;fillColor=#99CCFF;" parent="1" vertex="1">
          <mxGeometry x="345" y="220" width="100" height="100" as="geometry" />
        </mxCell>
        <mxCell id="dOBhgkOG1SsTnUNySuO0-4" value="ETL" style="ellipse;whiteSpace=wrap;html=1;aspect=fixed;fillColor=#99CCFF;" parent="1" vertex="1">
          <mxGeometry x="340" y="350" width="100" height="100" as="geometry" />
        </mxCell>
        <mxCell id="dOBhgkOG1SsTnUNySuO0-5" value="Scenerio Analysis" style="ellipse;whiteSpace=wrap;html=1;aspect=fixed;fillColor=#99CCFF;" parent="1" vertex="1">
          <mxGeometry x="340" y="480" width="100" height="100" as="geometry" />
        </mxCell>
        <mxCell id="dOBhgkOG1SsTnUNySuO0-6" value="Prediction Engine" style="ellipse;whiteSpace=wrap;html=1;aspect=fixed;fillColor=#99CCFF;" parent="1" vertex="1">
          <mxGeometry x="120" y="550" width="100" height="100" as="geometry" />
        </mxCell>
        <mxCell id="dOBhgkOG1SsTnUNySuO0-7" value="Personalized Recommendations" style="ellipse;whiteSpace=wrap;html=1;aspect=fixed;fillColor=#99CCFF;" parent="1" vertex="1">
          <mxGeometry x="600" y="545" width="110" height="110" as="geometry" />
        </mxCell>
        <mxCell id="dOBhgkOG1SsTnUNySuO0-8" value="Data Visualization" style="ellipse;whiteSpace=wrap;html=1;aspect=fixed;fillColor=#99CCFF;" parent="1" vertex="1">
          <mxGeometry x="330" y="700" width="100" height="100" as="geometry" />
        </mxCell>
        <mxCell id="dOBhgkOG1SsTnUNySuO0-9" value="Report" style="ellipse;whiteSpace=wrap;html=1;aspect=fixed;fillColor=#99CCFF;" parent="1" vertex="1">
          <mxGeometry x="325" y="840" width="100" height="100" as="geometry" />
        </mxCell>
        <mxCell id="dOBhgkOG1SsTnUNySuO0-10" value="Planner" style="rounded=0;whiteSpace=wrap;html=1;fillColor=#99CCFF;" parent="1" vertex="1">
          <mxGeometry x="620" y="715" width="120" height="60" as="geometry" />
        </mxCell>
        <mxCell id="dOBhgkOG1SsTnUNySuO0-19" value="Submit Data" style="text;html=1;align=center;verticalAlign=middle;whiteSpace=wrap;rounded=0;" parent="1" vertex="1">
          <mxGeometry x="240" y="100" width="70" height="30" as="geometry" />
        </mxCell>
        <mxCell id="dOBhgkOG1SsTnUNySuO0-20" value="Data submitted successfully" style="text;html=1;align=center;verticalAlign=middle;whiteSpace=wrap;rounded=0;" parent="1" vertex="1">
          <mxGeometry x="180" y="160" width="180" height="30" as="geometry" />
        </mxCell>
        <mxCell id="dOBhgkOG1SsTnUNySuO0-23" value="Store Data" style="text;html=1;align=center;verticalAlign=middle;whiteSpace=wrap;rounded=0;" parent="1" vertex="1">
          <mxGeometry x="425" y="190" width="70" height="30" as="geometry" />
        </mxCell>
        <mxCell id="dOBhgkOG1SsTnUNySuO0-26" value="" style="endArrow=classic;html=1;rounded=0;entryX=0.97;entryY=0.28;entryDx=0;entryDy=0;entryPerimeter=0;exitX=0.88;exitY=0.79;exitDx=0;exitDy=0;exitPerimeter=0;" parent="1" source="dOBhgkOG1SsTnUNySuO0-3" target="dOBhgkOG1SsTnUNySuO0-2" edge="1">
          <mxGeometry width="50" height="50" relative="1" as="geometry">
            <mxPoint x="440" y="300" as="sourcePoint" />
            <mxPoint x="550" y="100" as="targetPoint" />
            <Array as="points">
              <mxPoint x="550" y="300" />
              <mxPoint x="550" y="108" />
            </Array>
          </mxGeometry>
        </mxCell>
        <mxCell id="dOBhgkOG1SsTnUNySuO0-27" value="Data Stored successfully" style="text;html=1;align=center;verticalAlign=middle;whiteSpace=wrap;rounded=0;" parent="1" vertex="1">
          <mxGeometry x="530" y="190" width="130" height="30" as="geometry" />
        </mxCell>
        <mxCell id="dOBhgkOG1SsTnUNySuO0-29" value="Cleaned Data" style="text;html=1;align=center;verticalAlign=middle;whiteSpace=wrap;rounded=0;" parent="1" vertex="1">
          <mxGeometry x="400" y="450" width="80" height="30" as="geometry" />
        </mxCell>
        <mxCell id="dOBhgkOG1SsTnUNySuO0-31" value="Data provided Successfully" style="text;html=1;align=center;verticalAlign=middle;whiteSpace=wrap;rounded=0;" parent="1" vertex="1">
          <mxGeometry x="135" y="330" width="105" height="30" as="geometry" />
        </mxCell>
        <mxCell id="dOBhgkOG1SsTnUNySuO0-32" value="" style="endArrow=classic;html=1;rounded=0;exitX=0;exitY=0.5;exitDx=0;exitDy=0;entryX=0;entryY=0.5;entryDx=0;entryDy=0;" parent="1" edge="1">
          <mxGeometry width="50" height="50" relative="1" as="geometry">
            <mxPoint x="340" y="400" as="sourcePoint" />
            <mxPoint x="345" y="270" as="targetPoint" />
            <Array as="points">
              <mxPoint x="300" y="400" />
              <mxPoint x="285" y="400" />
              <mxPoint x="285" y="360" />
              <mxPoint x="285" y="310" />
              <mxPoint x="285" y="270" />
            </Array>
          </mxGeometry>
        </mxCell>
        <mxCell id="dOBhgkOG1SsTnUNySuO0-33" value="" style="endArrow=classic;html=1;rounded=0;exitX=0.07;exitY=0.27;exitDx=0;exitDy=0;exitPerimeter=0;" parent="1" source="dOBhgkOG1SsTnUNySuO0-3" edge="1">
          <mxGeometry width="50" height="50" relative="1" as="geometry">
            <mxPoint x="400" y="390" as="sourcePoint" />
            <mxPoint x="355" y="440" as="targetPoint" />
            <Array as="points">
              <mxPoint x="240" y="247" />
              <mxPoint x="240" y="440" />
            </Array>
          </mxGeometry>
        </mxCell>
        <mxCell id="dOBhgkOG1SsTnUNySuO0-34" value="" style="endArrow=classic;html=1;rounded=0;exitX=1;exitY=0.5;exitDx=0;exitDy=0;" parent="1" source="dOBhgkOG1SsTnUNySuO0-4" edge="1">
          <mxGeometry width="50" height="50" relative="1" as="geometry">
            <mxPoint x="400" y="390" as="sourcePoint" />
            <mxPoint x="440" y="540" as="targetPoint" />
            <Array as="points">
              <mxPoint x="480" y="400" />
              <mxPoint x="480" y="470" />
              <mxPoint x="480" y="540" />
            </Array>
          </mxGeometry>
        </mxCell>
        <mxCell id="dOBhgkOG1SsTnUNySuO0-35" value="" style="endArrow=classic;html=1;rounded=0;exitX=1;exitY=1;exitDx=0;exitDy=0;entryX=0.93;entryY=0.25;entryDx=0;entryDy=0;entryPerimeter=0;" parent="1" source="dOBhgkOG1SsTnUNySuO0-5" target="dOBhgkOG1SsTnUNySuO0-4" edge="1">
          <mxGeometry width="50" height="50" relative="1" as="geometry">
            <mxPoint x="400" y="390" as="sourcePoint" />
            <mxPoint x="520" y="370" as="targetPoint" />
            <Array as="points">
              <mxPoint x="520" y="565" />
              <mxPoint x="520" y="375" />
            </Array>
          </mxGeometry>
        </mxCell>
        <mxCell id="dOBhgkOG1SsTnUNySuO0-36" value="Cleaned Data&lt;br&gt;Recieved successfully" style="text;html=1;align=center;verticalAlign=middle;whiteSpace=wrap;rounded=0;" parent="1" vertex="1">
          <mxGeometry x="520" y="450" width="130" height="30" as="geometry" />
        </mxCell>
        <mxCell id="dOBhgkOG1SsTnUNySuO0-37" value="" style="endArrow=classic;html=1;rounded=0;entryX=0.5;entryY=0;entryDx=0;entryDy=0;exitX=0;exitY=0.5;exitDx=0;exitDy=0;" parent="1" source="dOBhgkOG1SsTnUNySuO0-5" target="dOBhgkOG1SsTnUNySuO0-6" edge="1">
          <mxGeometry width="50" height="50" relative="1" as="geometry">
            <mxPoint x="330" y="530" as="sourcePoint" />
            <mxPoint x="280" y="610" as="targetPoint" />
            <Array as="points">
              <mxPoint x="220" y="530" />
              <mxPoint x="170" y="530" />
            </Array>
          </mxGeometry>
        </mxCell>
        <mxCell id="dOBhgkOG1SsTnUNySuO0-38" value="Analyzed data" style="text;html=1;align=center;verticalAlign=middle;whiteSpace=wrap;rounded=0;" parent="1" vertex="1">
          <mxGeometry x="210" y="500" width="80" height="30" as="geometry" />
        </mxCell>
        <mxCell id="dOBhgkOG1SsTnUNySuO0-39" value="" style="endArrow=classic;html=1;rounded=0;exitX=1;exitY=0.5;exitDx=0;exitDy=0;entryX=0.5;entryY=1;entryDx=0;entryDy=0;" parent="1" source="dOBhgkOG1SsTnUNySuO0-6" target="dOBhgkOG1SsTnUNySuO0-5" edge="1">
          <mxGeometry width="50" height="50" relative="1" as="geometry">
            <mxPoint x="400" y="590" as="sourcePoint" />
            <mxPoint x="430" y="610" as="targetPoint" />
            <Array as="points">
              <mxPoint x="390" y="600" />
            </Array>
          </mxGeometry>
        </mxCell>
        <mxCell id="dOBhgkOG1SsTnUNySuO0-40" value="Analyzed data recieved succesfully" style="text;html=1;align=center;verticalAlign=middle;whiteSpace=wrap;rounded=0;" parent="1" vertex="1">
          <mxGeometry x="240" y="570" width="110" height="30" as="geometry" />
        </mxCell>
        <mxCell id="dOBhgkOG1SsTnUNySuO0-41" value="" style="endArrow=classic;html=1;rounded=0;entryX=0;entryY=1;entryDx=0;entryDy=0;exitX=0.79;exitY=0.9;exitDx=0;exitDy=0;exitPerimeter=0;" parent="1" source="dOBhgkOG1SsTnUNySuO0-6" target="dOBhgkOG1SsTnUNySuO0-7" edge="1">
          <mxGeometry width="50" height="50" relative="1" as="geometry">
            <mxPoint x="220" y="617" as="sourcePoint" />
            <mxPoint x="450" y="640" as="targetPoint" />
            <Array as="points">
              <mxPoint x="400" y="640" />
              <mxPoint x="510" y="640" />
              <mxPoint x="590" y="640" />
            </Array>
          </mxGeometry>
        </mxCell>
        <mxCell id="dOBhgkOG1SsTnUNySuO0-42" value="Predicted data" style="text;html=1;align=center;verticalAlign=middle;whiteSpace=wrap;rounded=0;" parent="1" vertex="1">
          <mxGeometry x="400" y="610" width="80" height="30" as="geometry" />
        </mxCell>
        <mxCell id="dOBhgkOG1SsTnUNySuO0-43" value="" style="endArrow=classic;html=1;rounded=0;exitX=0.5;exitY=1;exitDx=0;exitDy=0;entryX=0.41;entryY=0.96;entryDx=0;entryDy=0;entryPerimeter=0;" parent="1" source="dOBhgkOG1SsTnUNySuO0-7" target="dOBhgkOG1SsTnUNySuO0-6" edge="1">
          <mxGeometry width="50" height="50" relative="1" as="geometry">
            <mxPoint x="400" y="690" as="sourcePoint" />
            <mxPoint x="160" y="680" as="targetPoint" />
            <Array as="points">
              <mxPoint x="655" y="680" />
              <mxPoint x="410" y="680" />
              <mxPoint x="161" y="680" />
            </Array>
          </mxGeometry>
        </mxCell>
        <mxCell id="dOBhgkOG1SsTnUNySuO0-44" value="Data recieved successfully" style="text;html=1;align=center;verticalAlign=middle;whiteSpace=wrap;rounded=0;" parent="1" vertex="1">
          <mxGeometry x="370" y="650" width="150" height="30" as="geometry" />
        </mxCell>
        <mxCell id="dOBhgkOG1SsTnUNySuO0-45" value="" style="endArrow=classic;html=1;rounded=0;exitX=0;exitY=0.583;exitDx=0;exitDy=0;entryX=1;entryY=0.5;entryDx=0;entryDy=0;exitPerimeter=0;" parent="1" source="dOBhgkOG1SsTnUNySuO0-10" target="dOBhgkOG1SsTnUNySuO0-8" edge="1">
          <mxGeometry width="50" height="50" relative="1" as="geometry">
            <mxPoint x="400" y="690" as="sourcePoint" />
            <mxPoint x="450" y="640" as="targetPoint" />
          </mxGeometry>
        </mxCell>
        <mxCell id="dOBhgkOG1SsTnUNySuO0-46" value="Request to view Dashboard" style="text;html=1;align=center;verticalAlign=middle;whiteSpace=wrap;rounded=0;" parent="1" vertex="1">
          <mxGeometry x="480" y="716" width="100" height="30" as="geometry" />
        </mxCell>
        <mxCell id="dOBhgkOG1SsTnUNySuO0-47" value="" style="endArrow=classic;html=1;rounded=0;exitX=0.5;exitY=1;exitDx=0;exitDy=0;entryX=0.5;entryY=1;entryDx=0;entryDy=0;" parent="1" source="dOBhgkOG1SsTnUNySuO0-8" target="dOBhgkOG1SsTnUNySuO0-10" edge="1">
          <mxGeometry width="50" height="50" relative="1" as="geometry">
            <mxPoint x="400" y="690" as="sourcePoint" />
            <mxPoint x="690" y="800" as="targetPoint" />
            <Array as="points">
              <mxPoint x="680" y="800" />
            </Array>
          </mxGeometry>
        </mxCell>
        <mxCell id="dOBhgkOG1SsTnUNySuO0-49" value="Dashboard Displayed successfully" style="text;html=1;align=center;verticalAlign=middle;whiteSpace=wrap;rounded=0;" parent="1" vertex="1">
          <mxGeometry x="465" y="768" width="130" height="30" as="geometry" />
        </mxCell>
        <mxCell id="dOBhgkOG1SsTnUNySuO0-50" value="" style="endArrow=classic;html=1;rounded=0;entryX=0.99;entryY=0.42;entryDx=0;entryDy=0;entryPerimeter=0;exitX=0.75;exitY=1;exitDx=0;exitDy=0;" parent="1" source="dOBhgkOG1SsTnUNySuO0-10" target="dOBhgkOG1SsTnUNySuO0-9" edge="1">
          <mxGeometry width="50" height="50" relative="1" as="geometry">
            <mxPoint x="710" y="780" as="sourcePoint" />
            <mxPoint x="430" y="900" as="targetPoint" />
            <Array as="points">
              <mxPoint x="710" y="880" />
            </Array>
          </mxGeometry>
        </mxCell>
        <mxCell id="dOBhgkOG1SsTnUNySuO0-51" value="Request Report" style="text;html=1;align=center;verticalAlign=middle;whiteSpace=wrap;rounded=0;" parent="1" vertex="1">
          <mxGeometry x="480" y="850" width="100" height="30" as="geometry" />
        </mxCell>
        <mxCell id="dOBhgkOG1SsTnUNySuO0-52" value="" style="endArrow=classic;html=1;rounded=0;exitX=0.94;exitY=0.73;exitDx=0;exitDy=0;exitPerimeter=0;entryX=0.892;entryY=1;entryDx=0;entryDy=0;entryPerimeter=0;" parent="1" source="dOBhgkOG1SsTnUNySuO0-9" target="dOBhgkOG1SsTnUNySuO0-10" edge="1">
          <mxGeometry width="50" height="50" relative="1" as="geometry">
            <mxPoint x="400" y="790" as="sourcePoint" />
            <mxPoint x="740" y="913" as="targetPoint" />
            <Array as="points">
              <mxPoint x="730" y="913" />
            </Array>
          </mxGeometry>
        </mxCell>
        <mxCell id="dOBhgkOG1SsTnUNySuO0-53" value="Generated Report" style="text;html=1;align=center;verticalAlign=middle;whiteSpace=wrap;rounded=0;" parent="1" vertex="1">
          <mxGeometry x="480" y="884" width="100" height="30" as="geometry" />
        </mxCell>
        <mxCell id="dOBhgkOG1SsTnUNySuO0-54" value="" style="endArrow=classic;html=1;rounded=0;" parent="1" edge="1">
          <mxGeometry width="50" height="50" relative="1" as="geometry">
            <mxPoint x="120" y="610" as="sourcePoint" />
            <mxPoint x="330" y="760" as="targetPoint" />
            <Array as="points">
              <mxPoint x="120" y="760" />
            </Array>
          </mxGeometry>
        </mxCell>
        <mxCell id="dOBhgkOG1SsTnUNySuO0-55" value="Predicted data+Historical data" style="text;html=1;align=center;verticalAlign=middle;whiteSpace=wrap;rounded=0;" parent="1" vertex="1">
          <mxGeometry x="150" y="723" width="110" height="30" as="geometry" />
        </mxCell>
        <mxCell id="dOBhgkOG1SsTnUNySuO0-56" value="" style="endArrow=classic;html=1;rounded=0;entryX=0;entryY=0.5;entryDx=0;entryDy=0;" parent="1" target="dOBhgkOG1SsTnUNySuO0-6" edge="1">
          <mxGeometry width="50" height="50" relative="1" as="geometry">
            <mxPoint x="350" y="790" as="sourcePoint" />
            <mxPoint x="80" y="800" as="targetPoint" />
            <Array as="points">
              <mxPoint x="350" y="800" />
              <mxPoint x="320" y="800" />
              <mxPoint x="230" y="800" />
              <mxPoint x="80" y="800" />
              <mxPoint x="80" y="600" />
            </Array>
          </mxGeometry>
        </mxCell>
        <mxCell id="dOBhgkOG1SsTnUNySuO0-57" value="Data Recieved Successfully" style="text;html=1;align=center;verticalAlign=middle;whiteSpace=wrap;rounded=0;" parent="1" vertex="1">
          <mxGeometry x="135" y="768" width="160" height="30" as="geometry" />
        </mxCell>
        <mxCell id="jsJaA-2YyFH9rZi9u7nk-1" value="Get Data" style="text;html=1;align=center;verticalAlign=middle;whiteSpace=wrap;rounded=0;" vertex="1" parent="1">
          <mxGeometry x="290" y="320" width="70" height="30" as="geometry" />
        </mxCell>
        <mxCell id="jsJaA-2YyFH9rZi9u7nk-4" value="" style="endArrow=classic;html=1;rounded=0;exitX=1;exitY=0.5;exitDx=0;exitDy=0;entryX=1;entryY=0;entryDx=0;entryDy=0;" edge="1" parent="1" source="dOBhgkOG1SsTnUNySuO0-10" target="dOBhgkOG1SsTnUNySuO0-7">
          <mxGeometry width="50" height="50" relative="1" as="geometry">
            <mxPoint x="400" y="800" as="sourcePoint" />
            <mxPoint x="760" y="550" as="targetPoint" />
            <Array as="points">
              <mxPoint x="760" y="745" />
              <mxPoint x="760" y="561" />
            </Array>
          </mxGeometry>
        </mxCell>
        <mxCell id="jsJaA-2YyFH9rZi9u7nk-5" value="Request Recommendations" style="text;html=1;align=center;verticalAlign=middle;whiteSpace=wrap;rounded=0;rotation=-90;" vertex="1" parent="1">
          <mxGeometry x="680" y="630" width="100" height="30" as="geometry" />
        </mxCell>
        <mxCell id="jsJaA-2YyFH9rZi9u7nk-6" value="" style="endArrow=classic;html=1;rounded=0;exitX=0.5;exitY=0;exitDx=0;exitDy=0;entryX=1;entryY=0.75;entryDx=0;entryDy=0;" edge="1" parent="1" source="dOBhgkOG1SsTnUNySuO0-7" target="dOBhgkOG1SsTnUNySuO0-10">
          <mxGeometry width="50" height="50" relative="1" as="geometry">
            <mxPoint x="400" y="600" as="sourcePoint" />
            <mxPoint x="800" y="760" as="targetPoint" />
            <Array as="points">
              <mxPoint x="655" y="520" />
              <mxPoint x="800" y="520" />
              <mxPoint x="800" y="760" />
            </Array>
          </mxGeometry>
        </mxCell>
        <mxCell id="jsJaA-2YyFH9rZi9u7nk-7" value="Personalized Recommendations Recieved Successfully" style="text;html=1;align=center;verticalAlign=middle;whiteSpace=wrap;rounded=0;rotation=-90;" vertex="1" parent="1">
          <mxGeometry x="670" y="640" width="220" height="30" as="geometry" />
        </mxCell>
      </root>
    </mxGraphModel>
  </diagram>
</mxfile>
